# Re: Flora Rock seed=122 +Y up; garden world units; bottom pivot
o stone
v 0.119999997 0.085012846 0.065667346
v 0.119999997 0.047988832 0.023413794
v 0.119999997 0.052869029 -0.032288171
v 0.119999997 0.083440460 -0.062466931
v 0.119999997 0.119758874 -0.058612004
v 0.119999997 0.136623606 -0.042451981
v 0.119999997 0.140353307 0.025487065
v 0.119999997 0.104255088 0.066107512
v -0.119999997 0.065843992 -0.036902085
v -0.119999997 0.054193847 -0.022486674
v -0.119999997 0.052772760 0.016839303
v -0.119999997 0.093962759 0.062764771
v -0.119999997 0.102670088 0.062792093
v -0.119999997 0.148132399 0.020263109
v -0.119999997 0.146801770 -0.032519776
v -0.056836016 0.200000003 -0.051306639
v -0.065518111 0.200000003 -0.043191962
v -0.067072071 0.200000003 0.017301917
v -0.037942369 0.200000003 0.042376451
v 0.038643971 0.200000003 0.042497493
v 0.045443036 0.200000003 0.035466652
v 0.039841741 0.200000003 -0.045410413
v -0.050847851 0.000000000 -0.031352233
v 0.004792860 0.000000000 -0.092440709
v 0.057838485 0.000000000 -0.040714070
v 0.063640758 0.000000000 0.016398652
v -0.002382821 0.000000000 0.072339021
v -0.053330652 0.000000000 0.022810934
v -0.019741874 0.144459650 0.109999999
v -0.066489711 0.101444155 0.109999999
v -0.066447720 0.089635521 0.109999999
v -0.001900983 0.033357568 0.109999999
v 0.063919403 0.082223587 0.109999999
v 0.064892232 0.115891241 0.109999999
v 0.033729095 0.144529089 0.109999999
v 0.068351842 0.080572784 -0.109999999
v 0.002874681 0.015892942 -0.109999999
v -0.049585838 0.062441200 -0.109999999
v -0.045358736 0.143303797 -0.109999999
v 0.040194631 0.138322979 -0.109999999
v 0.064165510 0.116638593 -0.109999999
v -0.103539638 0.162547380 -0.048712123
v -0.058877774 0.158225104 -0.095193364
v 0.046422813 0.194488481 -0.050782762
vn 1.000000000 0.000000000 0.000000000
vn 1.000000000 0.000000000 0.000000000
vn 1.000000000 0.000000000 0.000000000
vn 1.000000000 0.000000000 0.000000000
vn 1.000000000 0.000000000 0.000000000
vn 1.000000000 0.000000000 0.000000000
vn -1.000000000 0.000000000 0.000000000
vn -1.000000000 0.000000000 0.000000000
vn -1.000000000 0.000000000 0.000000000
vn -1.000000000 0.000000000 0.000000000
vn -1.000000000 0.000000000 0.000000000
vn 0.000000000 1.000000000 0.000000000
vn 0.000000000 1.000000000 0.000000000
vn 0.000000000 1.000000000 0.000000000
vn 0.000000000 1.000000000 0.000000000
vn 0.000000000 1.000000000 0.000000000
vn 0.000000000 -1.000000000 0.000000000
vn 0.000000000 -1.000000000 0.000000000
vn 0.000000000 -1.000000000 0.000000000
vn 0.000000000 -1.000000000 0.000000000
vn 0.000000000 0.000000000 1.000000000
vn 0.000000000 0.000000000 1.000000000
vn 0.000000000 0.000000000 1.000000000
vn 0.000000000 0.000000000 1.000000000
vn 0.000000000 0.000000000 1.000000000
vn 0.000000000 0.000000000 -1.000000000
vn 0.000000000 0.000000000 -1.000000000
vn 0.000000000 0.000000000 -1.000000000
vn 0.000000000 0.000000000 -1.000000000
vn -0.567984223 -0.640125871 -0.517332375
vn -0.567984223 -0.640125871 -0.517332375
vn -0.567984223 -0.640125871 -0.517332375
vn -0.567984223 -0.640125871 -0.517332375
vn -0.544444323 -0.624438226 0.560051084
vn -0.544444323 -0.624438226 0.560051084
vn -0.544444323 -0.624438226 0.560051084
vn -0.544444323 -0.624438226 0.560051084
vn -0.532971323 0.625115156 -0.570239007
vn -0.532971323 0.625115156 -0.570239007
vn -0.532195985 0.578373253 0.618265212
vn -0.532195985 0.578373253 0.618265212
vn -0.532195985 0.578373253 0.618265212
vn -0.532195985 0.578373253 0.618265212
vn 0.570131063 -0.577159226 -0.584668934
vn 0.570131063 -0.577159226 -0.584668934
vn 0.570131063 -0.577159226 -0.584668934
vn 0.570131063 -0.577159226 -0.584668934
vn 0.487527728 -0.656678498 0.575404227
vn 0.487527728 -0.656678498 0.575404227
vn 0.487527728 -0.656678498 0.575404227
vn 0.487527728 -0.656678498 0.575404227
vn 0.530527055 0.586467981 -0.612042785
vn 0.530527055 0.586467981 -0.612042785
vn 0.530527055 0.586467981 -0.612042785
vn 0.566202819 0.616130710 0.547537446
vn 0.566202819 0.616130710 0.547537446
vn 0.566202819 0.616130710 0.547537446
vn 0.566202819 0.616130710 0.547537446
vn 0.620610714 0.782939970 -0.042981558
vn 0.620610714 0.782939970 -0.042981558
vn 0.620610714 0.782939970 -0.042981558
vn -0.700316370 0.713605881 -0.017989710
vn -0.700316370 0.713605881 -0.017989710
vn -0.700316370 0.713605881 -0.017989710
vn -0.001003360 0.772635758 0.634848773
vn -0.001003360 0.772635758 0.634848773
vn 0.042074751 0.722699463 -0.689880610
vn 0.042074751 0.722699463 -0.689880610
vn 0.042074751 0.722699463 -0.689880610
vn 0.042074751 0.722699463 -0.689880610
vn 0.620597303 -0.017932219 0.783924341
vn 0.620597303 -0.017932219 0.783924341
vn -0.661594570 -0.002352663 0.749858022
vn -0.661594570 -0.002352663 0.749858022
vn 0.672766924 0.078091316 -0.735721707
vn 0.672766924 0.078091316 -0.735721707
vn -0.718820930 0.037576433 -0.694178998
vn -0.718820930 0.037576433 -0.694178998
vn -0.718820930 0.037576433 -0.694178998
vn -0.718820930 0.037576433 -0.694178998
vn 0.651644826 -0.755629718 -0.066202745
vn 0.651644826 -0.755629718 -0.066202745
vn -0.618838251 -0.785006106 -0.028367082
vn -0.618838251 -0.785006106 -0.028367082
f 1//1 2//1 3//1
f 1//2 3//2 4//2
f 1//3 4//3 5//3
f 1//4 5//4 6//4
f 1//5 6//5 7//5
f 1//6 7//6 8//6
f 9//7 10//7 11//7
f 9//8 11//8 12//8
f 9//9 12//9 13//9
f 9//10 13//10 14//10
f 9//11 14//11 15//11
f 16//12 17//12 18//12
f 16//13 18//13 19//13
f 16//14 19//14 20//14
f 16//15 20//15 21//15
f 16//16 21//16 22//16
f 23//17 24//17 25//17
f 23//18 25//18 26//18
f 23//19 26//19 27//19
f 23//20 27//20 28//20
f 29//21 30//21 31//21
f 29//22 31//22 32//22
f 29//23 32//23 33//23
f 29//24 33//24 34//24
f 29//25 34//25 35//25
f 36//26 37//26 38//26
f 36//27 38//27 39//27
f 36//28 39//28 40//28
f 36//29 40//29 41//29
f 24//30 23//30 10//30
f 24//31 10//31 9//31
f 24//32 9//32 38//32
f 24//33 38//33 37//33
f 32//34 31//34 12//34
f 32//35 12//35 11//35
f 32//36 11//36 28//36
f 32//37 28//37 27//37
f 42//38 17//38 16//38
f 42//39 16//39 43//39
f 30//40 29//40 19//40
f 30//41 19//41 18//41
f 30//42 18//42 14//42
f 30//43 14//43 13//43
f 4//44 3//44 25//44
f 4//45 25//45 24//45
f 4//46 24//46 37//46
f 4//47 37//47 36//47
f 2//48 1//48 33//48
f 2//49 33//49 32//49
f 2//50 32//50 27//50
f 2//51 27//51 26//51
f 6//52 5//52 41//52
f 6//53 41//53 40//53
f 6//54 40//54 44//54
f 8//55 7//55 21//55
f 8//56 21//56 20//56
f 8//57 20//57 35//57
f 8//58 35//58 34//58
f 7//59 6//59 44//59
f 7//60 44//60 22//60
f 7//61 22//61 21//61
f 18//62 17//62 42//62
f 18//63 42//63 15//63
f 18//64 15//64 14//64
f 35//65 20//65 19//65
f 35//66 19//66 29//66
f 22//67 44//67 40//67
f 22//68 40//68 39//68
f 22//69 39//69 43//69
f 22//70 43//70 16//70
f 1//71 8//71 34//71
f 1//72 34//72 33//72
f 31//73 30//73 13//73
f 31//74 13//74 12//74
f 5//75 4//75 36//75
f 5//76 36//76 41//76
f 43//77 39//77 38//77
f 43//78 38//78 9//78
f 43//79 9//79 15//79
f 43//80 15//80 42//80
f 3//81 2//81 26//81
f 3//82 26//82 25//82
f 23//83 28//83 11//83
f 23//84 11//84 10//84
