# Re: Flora Rock seed=65535 +Y up; garden world units; bottom pivot
o stone
v 0.119999997 0.069081761 0.042962682
v 0.119999997 0.036722817 0.010295931
v 0.119999997 0.037435558 -0.003745363
v 0.119999997 0.082722783 -0.058146663
v 0.119999997 0.129002973 -0.053493354
v 0.119999997 0.153030053 -0.028296271
v 0.119999997 0.149095103 0.034365710
v -0.119999997 0.137044460 -0.030210871
v -0.119999997 0.102922060 -0.065986700
v -0.119999997 0.067754187 -0.065037861
v -0.119999997 0.048141409 -0.045021199
v -0.119999997 0.051093504 0.038593732
v -0.119999997 0.072940640 0.061323475
v -0.119999997 0.111842684 0.061330065
v -0.119999997 0.137967139 0.033946734
v 0.067359872 0.200000003 -0.031374618
v 0.062820651 0.200000003 -0.035887569
v -0.038078103 0.200000003 -0.036793280
v -0.041739013 0.200000003 -0.033549458
v -0.043133516 0.200000003 0.044511754
v -0.033403318 0.200000003 0.054080002
v 0.041669320 0.200000003 0.056333404
v 0.062687561 0.200000003 0.034741677
v -0.064362615 0.000000000 -0.042529281
v -0.019359753 0.000000000 -0.080255225
v 0.069122739 0.000000000 -0.003125389
v 0.070852518 0.000000000 0.021927718
v 0.001061779 0.000000000 0.091088578
v -0.061131146 0.000000000 0.036811851
v -0.029134220 0.150655836 0.109999999
v -0.065284774 0.116741247 0.109999999
v -0.065276600 0.073823534 0.109999999
v 0.000756281 0.018433338 0.109999999
v 0.052243311 0.068974935 0.109999999
v 0.043163009 0.152575135 0.109999999
v 0.061401021 0.083366156 -0.109999999
v -0.016526552 0.026817445 -0.109999999
v -0.069431096 0.070272498 -0.109999999
v -0.070420936 0.102843113 -0.109999999
v -0.025800887 0.140552357 -0.109999999
v 0.051576238 0.139989182 -0.109999999
v 0.055384934 0.136378348 -0.109999999
v 0.118187241 0.150603518 0.035996847
v 0.043834168 0.153243676 0.109264247
vn 1.000000000 0.000000000 0.000000000
vn 1.000000000 0.000000000 0.000000000
vn 1.000000000 0.000000000 0.000000000
vn 1.000000000 0.000000000 0.000000000
vn 1.000000000 0.000000000 0.000000000
vn -1.000000000 0.000000000 0.000000000
vn -1.000000000 0.000000000 0.000000000
vn -1.000000000 0.000000000 0.000000000
vn -1.000000000 0.000000000 0.000000000
vn -1.000000000 0.000000000 0.000000000
vn -1.000000000 0.000000000 0.000000000
vn 0.000000000 1.000000000 0.000000000
vn 0.000000000 1.000000000 0.000000000
vn 0.000000000 1.000000000 0.000000000
vn 0.000000000 1.000000000 0.000000000
vn 0.000000000 1.000000000 0.000000000
vn 0.000000000 1.000000000 0.000000000
vn 0.000000000 -1.000000000 0.000000000
vn 0.000000000 -1.000000000 0.000000000
vn 0.000000000 -1.000000000 0.000000000
vn 0.000000000 -1.000000000 0.000000000
vn 0.000000000 0.000000000 1.000000000
vn 0.000000000 0.000000000 1.000000000
vn 0.000000000 0.000000000 1.000000000
vn 0.000000000 0.000000000 1.000000000
vn 0.000000000 0.000000000 -1.000000000
vn 0.000000000 0.000000000 -1.000000000
vn 0.000000000 0.000000000 -1.000000000
vn 0.000000000 0.000000000 -1.000000000
vn 0.000000000 0.000000000 -1.000000000
vn -0.506033778 -0.616073012 -0.603642106
vn -0.506033778 -0.616073012 -0.603642106
vn -0.506033778 -0.616073012 -0.603642106
vn -0.506033778 -0.616073012 -0.603642106
vn -0.517491341 -0.616922259 0.592966795
vn -0.517491341 -0.616922259 0.592966795
vn -0.517491341 -0.616922259 0.592966795
vn -0.517491341 -0.616922259 0.592966795
vn -0.521725178 0.617339373 -0.588808060
vn -0.521725178 0.617339373 -0.588808060
vn -0.521725178 0.617339373 -0.588808060
vn -0.521725178 0.617339373 -0.588808060
vn -0.561625600 0.598653078 0.571131527
vn -0.561625600 0.598653078 0.571131527
vn -0.561625600 0.598653078 0.571131527
vn -0.561625600 0.598653078 0.571131527
vn 0.487075537 -0.671219885 -0.558767676
vn 0.487075537 -0.671219885 -0.558767676
vn 0.487075537 -0.671219885 -0.558767676
vn 0.487075537 -0.671219885 -0.558767676
vn 0.572030365 -0.582730830 0.577240050
vn 0.572030365 -0.582730830 0.577240050
vn 0.572030365 -0.582730830 0.577240050
vn 0.572030365 -0.582730830 0.577240050
vn 0.565751016 0.596753657 -0.569043815
vn 0.565751016 0.596753657 -0.569043815
vn 0.565751016 0.596753657 -0.569043815
vn 0.565751016 0.596753657 -0.569043815
vn 0.553326666 0.635379553 0.538630128
vn 0.553326666 0.635379553 0.538630128
vn 0.663517535 0.746689916 0.046889465
vn 0.663517535 0.746689916 0.046889465
vn 0.663517535 0.746689916 0.046889465
vn -0.627048671 0.778899550 -0.011201752
vn -0.627048671 0.778899550 -0.011201752
vn -0.019881792 0.748916209 0.662366390
vn -0.019881792 0.748916209 0.662366390
vn -0.019881792 0.748916209 0.662366390
vn 0.005653362 0.776735604 -0.629801452
vn 0.005653362 0.776735604 -0.629801452
vn 0.701219499 0.076163501 0.708865523
vn 0.701219499 0.076163501 0.708865523
vn 0.701219499 0.076163501 0.708865523
vn 0.701219499 0.076163501 0.708865523
vn -0.664618194 -0.000126569 0.747183144
vn -0.664618194 -0.000126569 0.747183144
vn 0.661280334 0.075045377 -0.746375620
vn 0.661280334 0.075045377 -0.746375620
vn -0.663766444 -0.020172253 -0.747667849
vn -0.663766444 -0.020172253 -0.747667849
vn 0.591837525 -0.805020869 -0.040863082
vn 0.591837525 -0.805020869 -0.040863082
vn -0.654777646 -0.755350947 0.026668323
vn -0.654777646 -0.755350947 0.026668323
f 1//1 2//1 3//1
f 1//2 3//2 4//2
f 1//3 4//3 5//3
f 1//4 5//4 6//4
f 1//5 6//5 7//5
f 8//6 9//6 10//6
f 8//7 10//7 11//7
f 8//8 11//8 12//8
f 8//9 12//9 13//9
f 8//10 13//10 14//10
f 8//11 14//11 15//11
f 16//12 17//12 18//12
f 16//13 18//13 19//13
f 16//14 19//14 20//14
f 16//15 20//15 21//15
f 16//16 21//16 22//16
f 16//17 22//17 23//17
f 24//18 25//18 26//18
f 24//19 26//19 27//19
f 24//20 27//20 28//20
f 24//21 28//21 29//21
f 30//22 31//22 32//22
f 30//23 32//23 33//23
f 30//24 33//24 34//24
f 30//25 34//25 35//25
f 36//26 37//26 38//26
f 36//27 38//27 39//27
f 36//28 39//28 40//28
f 36//29 40//29 41//29
f 36//30 41//30 42//30
f 25//31 24//31 11//31
f 25//32 11//32 10//32
f 25//33 10//33 38//33
f 25//34 38//34 37//34
f 33//35 32//35 13//35
f 33//36 13//36 12//36
f 33//37 12//37 29//37
f 33//38 29//38 28//38
f 40//39 39//39 9//39
f 40//40 9//40 8//40
f 40//41 8//41 19//41
f 40//42 19//42 18//42
f 21//43 20//43 15//43
f 21//44 15//44 14//44
f 21//45 14//45 31//45
f 21//46 31//46 30//46
f 4//47 3//47 26//47
f 4//48 26//48 25//48
f 4//49 25//49 37//49
f 4//50 37//50 36//50
f 2//51 1//51 34//51
f 2//52 34//52 33//52
f 2//53 33//53 28//53
f 2//54 28//54 27//54
f 6//55 5//55 42//55
f 6//56 42//56 41//56
f 6//57 41//57 17//57
f 6//58 17//58 16//58
f 43//59 23//59 22//59
f 43//60 22//60 44//60
f 7//61 6//61 16//61
f 7//62 16//62 23//62
f 7//63 23//63 43//63
f 20//64 19//64 8//64
f 20//65 8//65 15//65
f 44//66 22//66 21//66
f 44//67 21//67 30//67
f 44//68 30//68 35//68
f 17//69 41//69 40//69
f 17//70 40//70 18//70
f 1//71 7//71 43//71
f 1//72 43//72 44//72
f 1//73 44//73 35//73
f 1//74 35//74 34//74
f 32//75 31//75 14//75
f 32//76 14//76 13//76
f 5//77 4//77 36//77
f 5//78 36//78 42//78
f 39//79 38//79 10//79
f 39//80 10//80 9//80
f 3//81 2//81 27//81
f 3//82 27//82 26//82
f 24//83 29//83 12//83
f 24//84 12//84 11//84
