# Re: Flora Rock seed=42 +Y up; garden world units; bottom pivot
o stone
v 0.119999997 0.054583795 -0.033889793
v 0.119999997 0.145233855 -0.032696184
v 0.119999997 0.143599138 0.037028205
v 0.119999997 0.061724152 0.045622546
v -0.119999997 0.057374693 -0.040022541
v -0.119999997 0.045860052 -0.027071273
v -0.119999997 0.051070042 0.039721098
v -0.119999997 0.066745013 0.056650337
v -0.119999997 0.116888337 0.058817893
v -0.119999997 0.129327402 0.045515701
v -0.119999997 0.133157879 -0.032180667
v -0.046522416 0.200000003 -0.046122756
v -0.050151907 0.200000003 -0.042879760
v -0.046088491 0.200000003 0.035372011
v -0.017195756 0.200000003 0.060950320
v 0.045775667 0.200000003 0.060588267
v 0.049994987 0.200000003 0.056610461
v 0.052879460 0.200000003 -0.043317292
v -0.064848021 0.000000000 -0.021605782
v 0.007935285 0.000000000 -0.082464822
v 0.055078790 0.000000000 -0.045608927
v 0.044547871 0.000000000 0.051085770
v -0.008314066 0.000000000 0.102906168
v -0.058187060 0.000000000 0.050061110
v -0.016959347 0.154328659 0.109999999
v -0.072310269 0.108506814 0.109999999
v -0.070680425 0.067755193 0.109999999
v -0.008036738 0.006296177 0.109999999
v 0.052219138 0.056787901 0.109999999
v 0.041386422 0.154016316 0.109999999
v 0.045816407 0.056086890 -0.109999999
v 0.006252451 0.025731867 -0.109999999
v -0.047814313 0.065925926 -0.109999999
v -0.040567279 0.134676695 -0.109999999
v 0.044839602 0.132218122 -0.109999999
v -0.101384044 0.151638776 -0.048542980
v -0.051303931 0.147040844 -0.098180771
v 0.106084794 0.041812379 -0.048338264
v 0.115864538 0.058692686 0.049836949
v 0.066707149 0.154780746 -0.087261610
v 0.061082169 0.193481937 -0.049476326
v 0.102851361 0.159570619 -0.050105985
v 0.101198569 0.158491522 0.053178612
v 0.046053685 0.158526391 0.105129346
vn 1.000000000 0.000000000 0.000000000
vn 1.000000000 0.000000000 0.000000000
vn -1.000000000 0.000000000 0.000000000
vn -1.000000000 0.000000000 0.000000000
vn -1.000000000 0.000000000 0.000000000
vn -1.000000000 0.000000000 0.000000000
vn -1.000000000 0.000000000 0.000000000
vn 0.000000000 1.000000000 0.000000000
vn 0.000000000 1.000000000 0.000000000
vn 0.000000000 1.000000000 0.000000000
vn 0.000000000 1.000000000 0.000000000
vn 0.000000000 1.000000000 0.000000000
vn 0.000000000 -1.000000000 0.000000000
vn 0.000000000 -1.000000000 0.000000000
vn 0.000000000 -1.000000000 0.000000000
vn 0.000000000 -1.000000000 0.000000000
vn 0.000000000 0.000000000 1.000000000
vn 0.000000000 0.000000000 1.000000000
vn 0.000000000 0.000000000 1.000000000
vn 0.000000000 0.000000000 1.000000000
vn 0.000000000 0.000000000 -1.000000000
vn 0.000000000 0.000000000 -1.000000000
vn 0.000000000 0.000000000 -1.000000000
vn -0.485662133 -0.653285146 -0.580819130
vn -0.485662133 -0.653285146 -0.580819130
vn -0.485662133 -0.653285146 -0.580819130
vn -0.485662133 -0.653285146 -0.580819130
vn -0.584245741 -0.595507503 0.551387131
vn -0.584245741 -0.595507503 0.551387131
vn -0.584245741 -0.595507503 0.551387131
vn -0.584245741 -0.595507503 0.551387131
vn -0.522019327 0.621423542 -0.584233284
vn -0.522019327 0.621423542 -0.584233284
vn -0.517425716 0.625029087 0.584473491
vn -0.517425716 0.625029087 0.584473491
vn -0.517425716 0.625029087 0.584473491
vn -0.517425716 0.625029087 0.584473491
vn 0.480294347 -0.626003325 -0.614359200
vn 0.480294347 -0.626003325 -0.614359200
vn 0.480294347 -0.626003325 -0.614359200
vn 0.537233829 -0.641124785 0.548031747
vn 0.537233829 -0.641124785 0.548031747
vn 0.537233829 -0.641124785 0.548031747
vn 0.509247422 0.637974739 -0.577629030
vn 0.539309978 0.617979646 0.572054148
vn 0.539309978 0.617979646 0.572054148
vn 0.630360723 0.776089072 0.018195733
vn 0.630360723 0.776089072 0.018195733
vn 0.630360723 0.776089072 0.018195733
vn 0.630360723 0.776089072 0.018195733
vn 0.630360723 0.776089072 0.018195733
vn -0.688085854 0.724749088 0.035730559
vn -0.688085854 0.724749088 0.035730559
vn -0.688085854 0.724749088 0.035730559
vn 0.003917906 0.731865048 0.681438327
vn 0.003917906 0.731865048 0.681438327
vn 0.003917906 0.731865048 0.681438327
vn 0.020149069 0.699945211 -0.713912249
vn 0.020149069 0.699945211 -0.713912249
vn 0.020149069 0.699945211 -0.713912249
vn 0.020149069 0.699945211 -0.713912249
vn 0.020149069 0.699945211 -0.713912249
vn 0.683745205 0.076179564 0.725733578
vn 0.683745205 0.076179564 0.725733578
vn 0.683745205 0.076179564 0.725733578
vn 0.683745205 0.076179564 0.725733578
vn 0.683745205 0.076179564 0.725733578
vn -0.733704209 -0.029344160 0.678835034
vn -0.733704209 -0.029344160 0.678835034
vn 0.716172814 0.009188890 -0.697862506
vn 0.716172814 0.009188890 -0.697862506
vn 0.716172814 0.009188890 -0.697862506
vn 0.716172814 0.009188890 -0.697862506
vn 0.716172814 0.009188890 -0.697862506
vn -0.698633015 0.073643066 -0.711680114
vn -0.698633015 0.073643066 -0.711680114
vn -0.698633015 0.073643066 -0.711680114
vn -0.698633015 0.073643066 -0.711680114
vn 0.634659171 -0.769694865 0.069120072
vn 0.634659171 -0.769694865 0.069120072
vn 0.634659171 -0.769694865 0.069120072
vn 0.634659171 -0.769694865 0.069120072
vn -0.641711414 -0.764623582 0.059642784
vn -0.641711414 -0.764623582 0.059642784
f 1//1 2//1 3//1
f 1//2 3//2 4//2
f 5//3 6//3 7//3
f 5//4 7//4 8//4
f 5//5 8//5 9//5
f 5//6 9//6 10//6
f 5//7 10//7 11//7
f 12//8 13//8 14//8
f 12//9 14//9 15//9
f 12//10 15//10 16//10
f 12//11 16//11 17//11
f 12//12 17//12 18//12
f 19//13 20//13 21//13
f 19//14 21//14 22//14
f 19//15 22//15 23//15
f 19//16 23//16 24//16
f 25//17 26//17 27//17
f 25//18 27//18 28//18
f 25//19 28//19 29//19
f 25//20 29//20 30//20
f 31//21 32//21 33//21
f 31//22 33//22 34//22
f 31//23 34//23 35//23
f 20//24 19//24 6//24
f 20//25 6//25 5//25
f 20//26 5//26 33//26
f 20//27 33//27 32//27
f 28//28 27//28 8//28
f 28//29 8//29 7//29
f 28//30 7//30 24//30
f 28//31 24//31 23//31
f 36//32 13//32 12//32
f 36//33 12//33 37//33
f 15//34 14//34 10//34
f 15//35 10//35 9//35
f 15//36 9//36 26//36
f 15//37 26//37 25//37
f 21//38 20//38 32//38
f 21//39 32//39 31//39
f 21//40 31//40 38//40
f 39//41 29//41 28//41
f 39//42 28//42 23//42
f 39//43 23//43 22//43
f 40//44 41//44 42//44
f 43//45 17//45 16//45
f 43//46 16//46 44//46
f 3//47 2//47 42//47
f 3//48 42//48 41//48
f 3//49 41//49 18//49
f 3//50 18//50 17//50
f 3//51 17//51 43//51
f 14//52 13//52 36//52
f 14//53 36//53 11//53
f 14//54 11//54 10//54
f 44//55 16//55 15//55
f 44//56 15//56 25//56
f 44//57 25//57 30//57
f 18//58 41//58 40//58
f 18//59 40//59 35//59
f 18//60 35//60 34//60
f 18//61 34//61 37//61
f 18//62 37//62 12//62
f 4//63 3//63 43//63
f 4//64 43//64 44//64
f 4//65 44//65 30//65
f 4//66 30//66 29//66
f 4//67 29//67 39//67
f 27//68 26//68 9//68
f 27//69 9//69 8//69
f 42//70 2//70 1//70
f 42//71 1//71 38//71
f 42//72 38//72 31//72
f 42//73 31//73 35//73
f 42//74 35//74 40//74
f 37//75 34//75 33//75
f 37//76 33//76 5//76
f 37//77 5//77 11//77
f 37//78 11//78 36//78
f 38//79 1//79 4//79
f 38//80 4//80 39//80
f 38//81 39//81 22//81
f 38//82 22//82 21//82
f 19//83 24//83 7//83
f 19//84 7//84 6//84
