# Re: Flora Rock seed=7 +Y up; garden world units; bottom pivot
o stone
v 0.119999997 0.065533757 0.047572307
v 0.119999997 0.045406338 0.022949604
v 0.119999997 0.042597204 -0.031127429
v 0.119999997 0.061929032 -0.053654868
v 0.119999997 0.126418129 -0.055995315
v 0.119999997 0.149885982 -0.030006140
v 0.119999997 0.149375543 0.017211214
v 0.119999997 0.120363034 0.045910824
v -0.119999997 0.064915791 0.039185520
v -0.119999997 0.140235484 0.043186527
v -0.119999997 0.135922223 -0.046709061
v -0.119999997 0.067167237 -0.044616044
v 0.061067939 0.200000003 -0.028323980
v 0.021165146 0.200000003 -0.064762689
v -0.042218760 0.200000003 -0.059439093
v -0.047712412 0.200000003 0.035785139
v 0.046950974 0.200000003 0.033254053
v 0.060440581 0.200000003 0.021043751
v -0.038622510 0.000000000 -0.051750571
v 0.005707975 0.000000000 -0.096852109
v 0.067295648 0.000000000 -0.034687143
v 0.063598223 0.000000000 0.022590637
v 0.002456226 0.000000000 0.082417361
v -0.041644372 0.000000000 0.041350566
v -0.048160952 0.139174789 0.109999999
v -0.051723085 0.136638522 0.109999999
v -0.047791667 0.064007960 0.109999999
v 0.003200216 0.023142047 0.109999999
v 0.054155279 0.063898407 0.109999999
v 0.052444227 0.117390826 0.109999999
v 0.030522101 0.137450278 0.109999999
v 0.059206951 0.057623062 -0.109999999
v 0.004953705 0.010629463 -0.109999999
v -0.055512495 0.057621151 -0.109999999
v -0.058147926 0.145787865 -0.109999999
v -0.051420361 0.151905373 -0.109999999
v 0.022863656 0.157750785 -0.109999999
v 0.061861120 0.125593692 -0.109999999
v -0.108030707 0.057579499 -0.056513794
v -0.115352340 0.060951877 0.043536007
v -0.101621933 0.150287762 -0.065862730
v -0.054363705 0.189405769 -0.069726788
v -0.056085210 0.193431780 0.044021826
v -0.112338141 0.146985620 0.051064171
vn 1.000000000 0.000000000 0.000000000
vn 1.000000000 0.000000000 0.000000000
vn 1.000000000 0.000000000 0.000000000
vn 1.000000000 0.000000000 0.000000000
vn 1.000000000 0.000000000 0.000000000
vn 1.000000000 0.000000000 0.000000000
vn -1.000000000 0.000000000 0.000000000
vn -1.000000000 0.000000000 0.000000000
vn 0.000000000 1.000000000 0.000000000
vn 0.000000000 1.000000000 0.000000000
vn 0.000000000 1.000000000 0.000000000
vn 0.000000000 1.000000000 0.000000000
vn 0.000000000 -1.000000000 0.000000000
vn 0.000000000 -1.000000000 0.000000000
vn 0.000000000 -1.000000000 0.000000000
vn 0.000000000 -1.000000000 0.000000000
vn 0.000000000 0.000000000 1.000000000
vn 0.000000000 0.000000000 1.000000000
vn 0.000000000 0.000000000 1.000000000
vn 0.000000000 0.000000000 1.000000000
vn 0.000000000 0.000000000 1.000000000
vn 0.000000000 0.000000000 -1.000000000
vn 0.000000000 0.000000000 -1.000000000
vn 0.000000000 0.000000000 -1.000000000
vn 0.000000000 0.000000000 -1.000000000
vn 0.000000000 0.000000000 -1.000000000
vn -0.525457263 -0.676128149 -0.516474009
vn -0.525457263 -0.676128149 -0.516474009
vn -0.525457263 -0.676128149 -0.516474009
vn -0.519161880 -0.647802532 0.557514846
vn -0.519161880 -0.647802532 0.557514846
vn -0.519161880 -0.647802532 0.557514846
vn -0.541292012 0.595271707 -0.593847215
vn -0.541292012 0.595271707 -0.593847215
vn -0.466336131 0.654956818 0.594610989
vn -0.466336131 0.654956818 0.594610989
vn 0.549289644 -0.634144783 -0.544188678
vn 0.549289644 -0.634144783 -0.544188678
vn 0.549289644 -0.634144783 -0.544188678
vn 0.549289644 -0.634144783 -0.544188678
vn 0.526495039 -0.658243001 0.538069844
vn 0.526495039 -0.658243001 0.538069844
vn 0.526495039 -0.658243001 0.538069844
vn 0.526495039 -0.658243001 0.538069844
vn 0.522006273 0.633045912 -0.571631312
vn 0.522006273 0.633045912 -0.571631312
vn 0.522006273 0.633045912 -0.571631312
vn 0.522006273 0.633045912 -0.571631312
vn 0.541144788 0.591394305 0.597842038
vn 0.541144788 0.591394305 0.597842038
vn 0.541144788 0.591394305 0.597842038
vn 0.541144788 0.591394305 0.597842038
vn 0.647926211 0.761658609 0.008233760
vn 0.647926211 0.761658609 0.008233760
vn -0.638996184 0.768325984 -0.036864813
vn -0.638996184 0.768325984 -0.036864813
vn -0.638996184 0.768325984 -0.036864813
vn -0.638996184 0.768325984 -0.036864813
vn -0.638996184 0.768325984 -0.036864813
vn -0.638996184 0.768325984 -0.036864813
vn 0.016947897 0.773264766 0.633856773
vn 0.016947897 0.773264766 0.633856773
vn 0.016947897 0.773264766 0.633856773
vn -0.057330050 0.728555083 -0.682583928
vn -0.057330050 0.728555083 -0.682583928
vn -0.057330050 0.728555083 -0.682583928
vn 0.687572062 0.021993276 0.725782990
vn 0.687572062 0.021993276 0.725782990
vn -0.699922383 -0.037886102 0.713213384
vn -0.699922383 -0.037886102 0.713213384
vn -0.699922383 -0.037886102 0.713213384
vn -0.699922383 -0.037886102 0.713213384
vn 0.680538774 -0.026574181 -0.732230008
vn 0.680538774 -0.026574181 -0.732230008
vn -0.713363528 -0.021323485 -0.700469673
vn -0.713363528 -0.021323485 -0.700469673
vn -0.713363528 -0.021323485 -0.700469673
vn -0.713363528 -0.021323485 -0.700469673
vn 0.626422346 -0.778434277 0.040437195
vn 0.626422346 -0.778434277 0.040437195
vn -0.637498796 -0.770173430 -0.020691849
vn -0.637498796 -0.770173430 -0.020691849
vn -0.637498796 -0.770173430 -0.020691849
vn -0.637498796 -0.770173430 -0.020691849
f 1//1 2//1 3//1
f 1//2 3//2 4//2
f 1//3 4//3 5//3
f 1//4 5//4 6//4
f 1//5 6//5 7//5
f 1//6 7//6 8//6
f 9//7 10//7 11//7
f 9//8 11//8 12//8
f 13//9 14//9 15//9
f 13//10 15//10 16//10
f 13//11 16//11 17//11
f 13//12 17//12 18//12
f 19//13 20//13 21//13
f 19//14 21//14 22//14
f 19//15 22//15 23//15
f 19//16 23//16 24//16
f 25//17 26//17 27//17
f 25//18 27//18 28//18
f 25//19 28//19 29//19
f 25//20 29//20 30//20
f 25//21 30//21 31//21
f 32//22 33//22 34//22
f 32//23 34//23 35//23
f 32//24 35//24 36//24
f 32//25 36//25 37//25
f 32//26 37//26 38//26
f 20//27 19//27 39//27
f 20//28 39//28 34//28
f 20//29 34//29 33//29
f 28//30 27//30 40//30
f 28//31 40//31 24//31
f 28//32 24//32 23//32
f 36//33 35//33 41//33
f 36//34 41//34 42//34
f 43//35 44//35 26//35
f 43//36 26//36 25//36
f 4//37 3//37 21//37
f 4//38 21//38 20//38
f 4//39 20//39 33//39
f 4//40 33//40 32//40
f 2//41 1//41 29//41
f 2//42 29//42 28//42
f 2//43 28//43 23//43
f 2//44 23//44 22//44
f 6//45 5//45 38//45
f 6//46 38//46 37//46
f 6//47 37//47 14//47
f 6//48 14//48 13//48
f 8//49 7//49 18//49
f 8//50 18//50 17//50
f 8//51 17//51 31//51
f 8//52 31//52 30//52
f 7//53 6//53 13//53
f 7//54 13//54 18//54
f 16//55 15//55 42//55
f 16//56 42//56 41//56
f 16//57 41//57 11//57
f 16//58 11//58 10//58
f 16//59 10//59 44//59
f 16//60 44//60 43//60
f 31//61 17//61 16//61
f 31//62 16//62 43//62
f 31//63 43//63 25//63
f 14//64 37//64 36//64
f 14//65 36//65 42//65
f 14//66 42//66 15//66
f 1//67 8//67 30//67
f 1//68 30//68 29//68
f 27//69 26//69 44//69
f 27//70 44//70 10//70
f 27//71 10//71 9//71
f 27//72 9//72 40//72
f 5//73 4//73 32//73
f 5//74 32//74 38//74
f 35//75 34//75 39//75
f 35//76 39//76 12//76
f 35//77 12//77 11//77
f 35//78 11//78 41//78
f 3//79 2//79 22//79
f 3//80 22//80 21//80
f 19//81 24//81 40//81
f 19//82 40//82 9//82
f 19//83 9//83 12//83
f 19//84 12//84 39//84
