# Re: Flora Slab seed=65535 +Y up; garden world units; bottom pivot
o stone
v 0.119999997 0.031624932 0.077749647
v 0.119999997 0.003952539 0.077749647
v 0.119999997 0.003952539 -0.083047718
v 0.119999997 0.031624932 -0.083047718
v -0.119999997 0.031268142 -0.078760147
v -0.119999997 0.003728425 -0.078760147
v -0.119999997 0.003728425 0.084353678
v -0.119999997 0.031268142 0.084353678
v -0.115905613 0.035000000 0.087915704
v -0.095128678 0.035000000 0.105991215
v 0.088774055 0.035000000 0.105991215
v 0.116297066 0.035000000 0.081098676
v 0.116297066 0.035000000 -0.086480066
v 0.094880857 0.035000000 -0.106331334
v -0.088623747 0.035000000 -0.106331334
v -0.115905613 0.035000000 -0.082357995
v -0.115909383 0.000000000 -0.082354687
v -0.088314675 0.000000000 -0.106602922
v 0.094587848 0.000000000 -0.106602922
v 0.115663499 0.000000000 -0.087067336
v 0.115663499 0.000000000 0.081671692
v 0.088536754 0.000000000 0.106205836
v -0.094881974 0.000000000 0.106205836
v -0.115909383 0.000000000 0.087912425
v -0.090520762 0.031013990 0.109999999
v -0.090520762 0.003772605 0.109999999
v 0.084341645 0.003772605 0.109999999
v 0.084341645 0.031013990 0.109999999
v 0.090922974 0.031352177 -0.109999999
v 0.090922974 0.003377773 -0.109999999
v -0.084448770 0.003377773 -0.109999999
v -0.084448770 0.031352177 -0.109999999
vn 1.000000000 0.000000000 0.000000000
vn 1.000000000 0.000000000 0.000000000
vn -1.000000000 0.000000000 0.000000000
vn -1.000000000 0.000000000 0.000000000
vn 0.000000000 1.000000000 0.000000000
vn 0.000000000 1.000000000 0.000000000
vn 0.000000000 1.000000000 0.000000000
vn 0.000000000 1.000000000 0.000000000
vn 0.000000000 1.000000000 0.000000000
vn 0.000000000 1.000000000 0.000000000
vn 0.000000000 -1.000000000 0.000000000
vn 0.000000000 -1.000000000 0.000000000
vn 0.000000000 -1.000000000 0.000000000
vn 0.000000000 -1.000000000 0.000000000
vn 0.000000000 -1.000000000 0.000000000
vn 0.000000000 -1.000000000 0.000000000
vn 0.000000000 0.000000000 1.000000000
vn 0.000000000 0.000000000 1.000000000
vn 0.000000000 0.000000000 -1.000000000
vn 0.000000000 0.000000000 -1.000000000
vn -0.660089195 -0.000000000 -0.751187265
vn -0.660089195 -0.000000000 -0.751187265
vn -0.660089195 -0.000000000 -0.751187265
vn -0.660089195 -0.000000000 -0.751187265
vn -0.660089195 -0.000000000 -0.751187265
vn -0.660089195 -0.000000000 -0.751187265
vn -0.656356633 0.000000000 0.754450798
vn -0.656356633 0.000000000 0.754450798
vn -0.656356633 0.000000000 0.754450798
vn -0.656356633 0.000000000 0.754450798
vn -0.656356633 0.000000000 0.754450798
vn -0.656356633 0.000000000 0.754450798
vn 0.679803193 -0.000000000 -0.733394563
vn 0.679803193 -0.000000000 -0.733394563
vn 0.679803193 -0.000000000 -0.733394563
vn 0.679803193 -0.000000000 -0.733394563
vn 0.679803193 -0.000000000 -0.733394563
vn 0.679803193 -0.000000000 -0.733394563
vn 0.670776486 -0.000000000 0.741659582
vn 0.670776486 -0.000000000 0.741659582
vn 0.670776486 -0.000000000 0.741659582
vn 0.670776486 -0.000000000 0.741659582
vn 0.670776486 -0.000000000 0.741659582
vn 0.670776486 -0.000000000 0.741659582
vn 0.673630238 -0.739068568 -0.000000000
vn 0.673630238 -0.739068568 -0.000000000
vn -0.673630238 -0.739068568 -0.000000000
vn -0.673630238 -0.739068568 -0.000000000
vn -0.000000000 -0.709118426 0.705089390
vn -0.000000000 -0.709118426 0.705089390
vn 0.000000000 -0.709118426 -0.705089390
vn 0.000000000 -0.709118426 -0.705089390
vn 0.673630238 0.739068568 0.000000000
vn 0.673630238 0.739068568 0.000000000
vn -0.673630238 0.739068568 0.000000000
vn -0.673630238 0.739068568 0.000000000
vn -0.000000000 0.709118426 0.705089390
vn -0.000000000 0.709118426 0.705089390
vn 0.000000000 0.709118426 -0.705089390
vn 0.000000000 0.709118426 -0.705089390
f 1//1 2//1 3//1
f 1//2 3//2 4//2
f 5//3 6//3 7//3
f 5//4 7//4 8//4
f 9//5 10//5 11//5
f 9//6 11//6 12//6
f 9//7 12//7 13//7
f 9//8 13//8 14//8
f 9//9 14//9 15//9
f 9//10 15//10 16//10
f 17//11 18//11 19//11
f 17//12 19//12 20//12
f 17//13 20//13 21//13
f 17//14 21//14 22//14
f 17//15 22//15 23//15
f 17//16 23//16 24//16
f 25//17 26//17 27//17
f 25//18 27//18 28//18
f 29//19 30//19 31//19
f 29//20 31//20 32//20
f 32//21 31//21 18//21
f 32//22 18//22 17//22
f 32//23 17//23 6//23
f 32//24 6//24 5//24
f 32//25 5//25 16//25
f 32//26 16//26 15//26
f 26//27 25//27 10//27
f 26//28 10//28 9//28
f 26//29 9//29 8//29
f 26//30 8//30 7//30
f 26//31 7//31 24//31
f 26//32 24//32 23//32
f 4//33 3//33 20//33
f 4//34 20//34 19//34
f 4//35 19//35 30//35
f 4//36 30//36 29//36
f 4//37 29//37 14//37
f 4//38 14//38 13//38
f 2//39 1//39 12//39
f 2//40 12//40 11//40
f 2//41 11//41 28//41
f 2//42 28//42 27//42
f 2//43 27//43 22//43
f 2//44 22//44 21//44
f 3//45 2//45 21//45
f 3//46 21//46 20//46
f 7//47 6//47 17//47
f 7//48 17//48 24//48
f 22//49 27//49 26//49
f 22//50 26//50 23//50
f 30//51 19//51 18//51
f 30//52 18//52 31//52
f 13//53 12//53 1//53
f 13//54 1//54 4//54
f 9//55 16//55 5//55
f 9//56 5//56 8//56
f 28//57 11//57 10//57
f 28//58 10//58 25//58
f 14//59 29//59 32//59
f 14//60 32//60 15//60
